<svg width="149" height="41" viewBox="0 0 149 41" fill="none" xmlns="http://www.w3.org/2000/svg">
<path d="M12.5 29H7.11364V11.5455H12.7386C14.4318 11.5455 15.8807 11.8949 17.0852 12.5938C18.2898 13.2869 19.2131 14.2841 19.8551 15.5852C20.4972 16.8807 20.8182 18.4318 20.8182 20.2386C20.8182 22.0568 20.4943 23.6222 19.8466 24.9347C19.1989 26.2415 18.2557 27.2472 17.017 27.9517C15.7784 28.6506 14.2727 29 12.5 29ZM9.22727 27.125H12.3636C13.8068 27.125 15.0028 26.8466 15.9517 26.2898C16.9006 25.733 17.608 24.9403 18.0739 23.9119C18.5398 22.8835 18.7727 21.6591 18.7727 20.2386C18.7727 18.8295 18.5426 17.6165 18.0824 16.5994C17.6222 15.5767 16.9347 14.7926 16.0199 14.2472C15.1051 13.696 13.9659 13.4205 12.6023 13.4205H9.22727V27.125ZM31.8036 29V11.5455H42.3377V13.4205H33.9173V19.3182H41.7923V21.1932H33.9173V27.125H42.4741V29H31.8036ZM67.6328 17H65.5192C65.3942 16.392 65.1755 15.858 64.863 15.3977C64.5561 14.9375 64.1811 14.5511 63.738 14.2386C63.3005 13.9205 62.8147 13.6818 62.2806 13.5227C61.7465 13.3636 61.1897 13.2841 60.6101 13.2841C59.5533 13.2841 58.5959 13.5511 57.738 14.0852C56.8857 14.6193 56.2067 15.4062 55.701 16.446C55.201 17.4858 54.951 18.7614 54.951 20.2727C54.951 21.7841 55.201 23.0597 55.701 24.0994C56.2067 25.1392 56.8857 25.9261 57.738 26.4602C58.5959 26.9943 59.5533 27.2614 60.6101 27.2614C61.1897 27.2614 61.7465 27.1818 62.2806 27.0227C62.8147 26.8636 63.3005 26.6278 63.738 26.3153C64.1811 25.9972 64.5561 25.608 64.863 25.1477C65.1755 24.6818 65.3942 24.1477 65.5192 23.5455H67.6328C67.4738 24.4375 67.184 25.2358 66.7635 25.9403C66.3431 26.6449 65.8203 27.2443 65.1953 27.7386C64.5703 28.2273 63.8686 28.5994 63.0902 28.8551C62.3175 29.1108 61.4908 29.2386 60.6101 29.2386C59.1215 29.2386 57.7976 28.875 56.6385 28.1477C55.4794 27.4205 54.5675 26.3864 53.9027 25.0455C53.238 23.7045 52.9056 22.1136 52.9056 20.2727C52.9056 18.4318 53.238 16.8409 53.9027 15.5C54.5675 14.1591 55.4794 13.125 56.6385 12.3977C57.7976 11.6705 59.1215 11.3068 60.6101 11.3068C61.4908 11.3068 62.3175 11.4347 63.0902 11.6903C63.8686 11.946 64.5703 12.321 65.1953 12.8153C65.8203 13.304 66.3431 13.9006 66.7635 14.6051C67.184 15.304 67.4738 16.1023 67.6328 17ZM112.255 29H106.868V11.5455H112.493C114.187 11.5455 115.635 11.8949 116.84 12.5938C118.044 13.2869 118.968 14.2841 119.61 15.5852C120.252 16.8807 120.573 18.4318 120.573 20.2386C120.573 22.0568 120.249 23.6222 119.601 24.9347C118.954 26.2415 118.01 27.2472 116.772 27.9517C115.533 28.6506 114.027 29 112.255 29ZM108.982 27.125H112.118C113.562 27.125 114.758 26.8466 115.706 26.2898C116.655 25.733 117.363 24.9403 117.829 23.9119C118.294 22.8835 118.527 21.6591 118.527 20.2386C118.527 18.8295 118.297 17.6165 117.837 16.5994C117.377 15.5767 116.689 14.7926 115.775 14.2472C114.86 13.696 113.721 13.4205 112.357 13.4205H108.982V27.125ZM131.558 29V11.5455H142.092V13.4205H133.672V19.3182H141.547V21.1932H133.672V27.125H142.229V29H131.558Z" fill="white"/>
<g clip-path="url(#clip0_18_260)">
<path d="M95 12H78V29H95V12Z" fill="white"/>
<path d="M92.62 14.38H80.38V26.62H92.62V14.38Z" fill="black"/>
<path d="M90.24 16.76H82.76V24.24H90.24V16.76Z" fill="#00FFAE"/>
</g>
<defs>
<clipPath id="clip0_18_260">
<rect width="17" height="17" fill="white" transform="translate(78 12)"/>
</clipPath>
</defs>
</svg>
